# xmcd
#
# Track frame offsets: 
#        150
#        1879
#        21433
#        38404
#        51754
#        59516
#        78329
#        105423
#        126641
#        153770
#        185366
#        209064
#        221128
#
# Disc length: 3379 seconds
#
# Revision: 0
# Processed by: cddbd v1.5.2PL0 Copyright (c) Steve Scherf et al.
# Submitted via: ExactAudioCopy v0.95b3
#
DISCID=b00d310d
DTITLE=Disgrace - Mental Disorder
DYEAR=2010
DGENRE=Thrash Metal
TTITLE0=Intro
TTITLE1=Fear Of Resurrection
TTITLE2=C.S.D.
TTITLE3=Aztlan Overground
TTITLE4=Slaughter Of Ideologies
TTITLE5=Mental Disorder
TTITLE6=Murderer Of Illusion
TTITLE7=Eternal Fire
TTITLE8=Arsenal Of Disgrace
TTITLE9=Line Of Time
TTITLE10=My Suicide
TTITLE11=You're My Bitch
TTITLE12=Beliefs In War
EXTD=
EXTT0=
EXTT1=
EXTT2=
EXTT3=
EXTT4=
EXTT5=
EXTT6=
EXTT7=
EXTT8=
EXTT9=
EXTT10=
EXTT11=
EXTT12=
PLAYORDER=
